<svg width="504" height="368" viewBox="0 0 504 368" fill="none" xmlns="http://www.w3.org/2000/svg">
<rect y="0.5" width="504" height="367" rx="6" fill="white"/>
<rect x="282.5" y="80" width="183" height="241" rx="4.5" fill="white"/>
<rect x="282.5" y="80" width="183" height="241" rx="4.5" stroke="#0062E0" stroke-width="3"/>
<path d="M309.22 128.64C309.14 126.24 309.42 124.02 310.06 121.98C310.7 119.9 311.66 118.1 312.94 116.58C314.22 115.02 315.82 113.82 317.74 112.98C319.7 112.1 321.94 111.66 324.46 111.66C326.38 111.66 328.2 111.96 329.92 112.56C331.68 113.16 333.22 114.02 334.54 115.14C335.86 116.26 336.9 117.64 337.66 119.28C338.46 120.92 338.86 122.76 338.86 124.8C338.86 126.92 338.52 128.74 337.84 130.26C337.16 131.78 336.26 133.14 335.14 134.34C334.02 135.5 332.74 136.56 331.3 137.52C329.9 138.48 328.48 139.44 327.04 140.4C325.6 141.32 324.2 142.32 322.84 143.4C321.48 144.48 320.28 145.74 319.24 147.18H339.1V154.5H308.26C308.26 152.06 308.6 149.94 309.28 148.14C310 146.34 310.96 144.74 312.16 143.34C313.36 141.9 314.76 140.58 316.36 139.38C318 138.18 319.72 136.96 321.52 135.72C322.44 135.08 323.42 134.44 324.46 133.8C325.5 133.12 326.44 132.38 327.28 131.58C328.16 130.78 328.88 129.88 329.44 128.88C330.04 127.88 330.34 126.74 330.34 125.46C330.34 123.42 329.74 121.84 328.54 120.72C327.38 119.56 325.88 118.98 324.04 118.98C322.8 118.98 321.74 119.28 320.86 119.88C320.02 120.44 319.34 121.2 318.82 122.16C318.3 123.08 317.92 124.12 317.68 125.28C317.48 126.4 317.38 127.52 317.38 128.64H309.22ZM342.56 128.64C342.48 126.24 342.76 124.02 343.4 121.98C344.04 119.9 345 118.1 346.28 116.58C347.56 115.02 349.16 113.82 351.08 112.98C353.04 112.1 355.28 111.66 357.8 111.66C359.72 111.66 361.54 111.96 363.26 112.56C365.02 113.16 366.56 114.02 367.88 115.14C369.2 116.26 370.24 117.64 371 119.28C371.8 120.92 372.2 122.76 372.2 124.8C372.2 126.92 371.86 128.74 371.18 130.26C370.5 131.78 369.6 133.14 368.48 134.34C367.36 135.5 366.08 136.56 364.64 137.52C363.24 138.48 361.82 139.44 360.38 140.4C358.94 141.32 357.54 142.32 356.18 143.4C354.82 144.48 353.62 145.74 352.58 147.18H372.44V154.5H341.6C341.6 152.06 341.94 149.94 342.62 148.14C343.34 146.34 344.3 144.74 345.5 143.34C346.7 141.9 348.1 140.58 349.7 139.38C351.34 138.18 353.06 136.96 354.86 135.72C355.78 135.08 356.76 134.44 357.8 133.8C358.84 133.12 359.78 132.38 360.62 131.58C361.5 130.78 362.22 129.88 362.78 128.88C363.38 127.88 363.68 126.74 363.68 125.46C363.68 123.42 363.08 121.84 361.88 120.72C360.72 119.56 359.22 118.98 357.38 118.98C356.14 118.98 355.08 119.28 354.2 119.88C353.36 120.44 352.68 121.2 352.16 122.16C351.64 123.08 351.26 124.12 351.02 125.28C350.82 126.4 350.72 127.52 350.72 128.64H342.56Z" fill="#1A1A1A"/>
<path d="M386.16 122.24C386.16 122.787 386.253 123.253 386.44 123.64C386.627 124.027 386.887 124.347 387.22 124.6C387.553 124.84 387.933 125.02 388.36 125.14C388.8 125.247 389.273 125.3 389.78 125.3C390.327 125.3 390.793 125.24 391.18 125.12C391.567 124.987 391.88 124.82 392.12 124.62C392.36 124.42 392.533 124.193 392.64 123.94C392.747 123.673 392.8 123.407 392.8 123.14C392.8 122.593 392.673 122.193 392.42 121.94C392.18 121.673 391.913 121.487 391.62 121.38C391.113 121.193 390.52 121.02 389.84 120.86C389.173 120.687 388.347 120.467 387.36 120.2C386.747 120.04 386.233 119.833 385.82 119.58C385.42 119.313 385.1 119.02 384.86 118.7C384.62 118.38 384.447 118.04 384.34 117.68C384.247 117.32 384.2 116.953 384.2 116.58C384.2 115.86 384.347 115.24 384.64 114.72C384.947 114.187 385.347 113.747 385.84 113.4C386.333 113.053 386.893 112.8 387.52 112.64C388.147 112.467 388.78 112.38 389.42 112.38C390.167 112.38 390.867 112.48 391.52 112.68C392.187 112.867 392.767 113.153 393.26 113.54C393.767 113.927 394.167 114.407 394.46 114.98C394.753 115.54 394.9 116.193 394.9 116.94H392.4C392.333 116.02 392.02 115.373 391.46 115C390.9 114.613 390.187 114.42 389.32 114.42C389.027 114.42 388.727 114.453 388.42 114.52C388.113 114.573 387.833 114.673 387.58 114.82C387.327 114.953 387.113 115.14 386.94 115.38C386.78 115.62 386.7 115.92 386.7 116.28C386.7 116.787 386.853 117.187 387.16 117.48C387.48 117.76 387.893 117.973 388.4 118.12C388.453 118.133 388.66 118.193 389.02 118.3C389.393 118.393 389.807 118.5 390.26 118.62C390.713 118.74 391.153 118.86 391.58 118.98C392.02 119.087 392.333 119.167 392.52 119.22C392.987 119.367 393.393 119.567 393.74 119.82C394.087 120.073 394.373 120.367 394.6 120.7C394.84 121.02 395.013 121.367 395.12 121.74C395.24 122.113 395.3 122.487 395.3 122.86C395.3 123.66 395.133 124.347 394.8 124.92C394.48 125.48 394.053 125.94 393.52 126.3C392.987 126.66 392.38 126.92 391.7 127.08C391.02 127.253 390.327 127.34 389.62 127.34C388.807 127.34 388.04 127.24 387.32 127.04C386.6 126.84 385.973 126.533 385.44 126.12C384.907 125.707 384.48 125.18 384.16 124.54C383.84 123.887 383.673 123.12 383.66 122.24H386.16ZM397.329 112.72H399.829V121.04C399.829 121.52 399.849 122.007 399.889 122.5C399.942 122.993 400.075 123.44 400.289 123.84C400.515 124.227 400.849 124.547 401.289 124.8C401.742 125.053 402.375 125.18 403.189 125.18C404.002 125.18 404.629 125.053 405.069 124.8C405.522 124.547 405.855 124.227 406.069 123.84C406.295 123.44 406.429 122.993 406.469 122.5C406.522 122.007 406.549 121.52 406.549 121.04V112.72H409.049V121.86C409.049 122.78 408.909 123.58 408.629 124.26C408.349 124.94 407.949 125.513 407.429 125.98C406.922 126.433 406.309 126.773 405.589 127C404.869 127.227 404.069 127.34 403.189 127.34C402.309 127.34 401.509 127.227 400.789 127C400.069 126.773 399.449 126.433 398.929 125.98C398.422 125.513 398.029 124.94 397.749 124.26C397.469 123.58 397.329 122.78 397.329 121.86V112.72ZM411.822 112.72H414.462L420.982 123.24H421.022V112.72H423.402V127H420.762L414.262 116.5H414.202V127H411.822V112.72ZM384.52 136.72H390.44C391.533 136.72 392.48 136.907 393.28 137.28C394.08 137.653 394.733 138.167 395.24 138.82C395.747 139.46 396.12 140.213 396.36 141.08C396.613 141.947 396.74 142.873 396.74 143.86C396.74 144.847 396.613 145.773 396.36 146.64C396.12 147.507 395.747 148.267 395.24 148.92C394.733 149.56 394.08 150.067 393.28 150.44C392.48 150.813 391.533 151 390.44 151H384.52V136.72ZM387.02 148.96H389.48C390.453 148.96 391.247 148.833 391.86 148.58C392.487 148.313 392.973 147.953 393.32 147.5C393.68 147.033 393.92 146.493 394.04 145.88C394.173 145.253 394.24 144.58 394.24 143.86C394.24 143.14 394.173 142.473 394.04 141.86C393.92 141.233 393.68 140.693 393.32 140.24C392.973 139.773 392.487 139.413 391.86 139.16C391.247 138.893 390.453 138.76 389.48 138.76H387.02V148.96ZM402.774 136.72H405.434L410.934 151H408.254L406.914 147.22H401.214L399.874 151H397.294L402.774 136.72ZM401.894 145.32H406.254L404.114 139.18H404.054L401.894 145.32ZM414.529 145.4L409.169 136.72H412.069L415.849 143.12L419.569 136.72H422.369L417.029 145.4V151H414.529V145.4Z" fill="#1A1A1A"/>
<rect x="307" y="186.5" width="86" height="14" rx="6" fill="#CBDFF8"/>
<rect x="307" y="206.5" width="101" height="21" rx="6" fill="#F6F7F8"/>
<rect x="307" y="255.5" width="86" height="14" rx="6" fill="#CBDFF8"/>
<rect x="307" y="275.5" width="135" height="21" rx="6" fill="#F6F7F8"/>
<g filter="url(#filter0_d_0_243)">
<rect x="30" y="78.5" width="186" height="244" rx="6" fill="url(#paint0_linear_0_243)" shape-rendering="crispEdges"/>
<path d="M79.52 154.5H71V127.26H60.44V120.84C61.92 120.88 63.34 120.78 64.7 120.54C66.1 120.26 67.34 119.8 68.42 119.16C69.54 118.48 70.48 117.6 71.24 116.52C72 115.44 72.5 114.1 72.74 112.5H79.52V154.5ZM91.5598 128.64C91.4798 126.24 91.7598 124.02 92.3998 121.98C93.0398 119.9 93.9998 118.1 95.2798 116.58C96.5598 115.02 98.1598 113.82 100.08 112.98C102.04 112.1 104.28 111.66 106.8 111.66C108.72 111.66 110.54 111.96 112.26 112.56C114.02 113.16 115.56 114.02 116.88 115.14C118.2 116.26 119.24 117.64 120 119.28C120.8 120.92 121.2 122.76 121.2 124.8C121.2 126.92 120.86 128.74 120.18 130.26C119.5 131.78 118.6 133.14 117.48 134.34C116.36 135.5 115.08 136.56 113.64 137.52C112.24 138.48 110.82 139.44 109.38 140.4C107.94 141.32 106.54 142.32 105.18 143.4C103.82 144.48 102.62 145.74 101.58 147.18H121.44V154.5H90.5998C90.5998 152.06 90.9398 149.94 91.6198 148.14C92.3398 146.34 93.2998 144.74 94.4998 143.34C95.6998 141.9 97.0998 140.58 98.6998 139.38C100.34 138.18 102.06 136.96 103.86 135.72C104.78 135.08 105.76 134.44 106.8 133.8C107.84 133.12 108.78 132.38 109.62 131.58C110.5 130.78 111.22 129.88 111.78 128.88C112.38 127.88 112.68 126.74 112.68 125.46C112.68 123.42 112.08 121.84 110.88 120.72C109.72 119.56 108.22 118.98 106.38 118.98C105.14 118.98 104.08 119.28 103.2 119.88C102.36 120.44 101.68 121.2 101.16 122.16C100.64 123.08 100.26 124.12 100.02 125.28C99.8198 126.4 99.7198 127.52 99.7198 128.64H91.5598Z" fill="white"/>
<path d="M133.52 112.72H143.38V114.88H136.02V118.62H142.48V120.66H136.02V127H133.52V112.72ZM145.375 112.72H152.195C153.769 112.72 154.949 113.06 155.735 113.74C156.522 114.42 156.915 115.367 156.915 116.58C156.915 117.26 156.815 117.827 156.615 118.28C156.415 118.72 156.182 119.08 155.915 119.36C155.649 119.627 155.382 119.82 155.115 119.94C154.862 120.06 154.675 120.14 154.555 120.18V120.22C154.769 120.247 154.995 120.313 155.235 120.42C155.489 120.527 155.722 120.7 155.935 120.94C156.149 121.167 156.322 121.467 156.455 121.84C156.602 122.213 156.675 122.68 156.675 123.24C156.675 124.08 156.735 124.847 156.855 125.54C156.989 126.22 157.189 126.707 157.455 127H154.775C154.589 126.693 154.475 126.353 154.435 125.98C154.409 125.607 154.395 125.247 154.395 124.9C154.395 124.247 154.355 123.687 154.275 123.22C154.195 122.74 154.049 122.347 153.835 122.04C153.622 121.72 153.329 121.487 152.955 121.34C152.595 121.193 152.129 121.12 151.555 121.12H147.875V127H145.375V112.72ZM147.875 119.22H151.975C152.775 119.22 153.382 119.033 153.795 118.66C154.209 118.273 154.415 117.7 154.415 116.94C154.415 116.487 154.349 116.12 154.215 115.84C154.082 115.547 153.895 115.32 153.655 115.16C153.429 115 153.162 114.893 152.855 114.84C152.562 114.787 152.255 114.76 151.935 114.76H147.875V119.22ZM159.458 112.72H161.958V127H159.458V112.72ZM133.52 136.72H139.44C140.533 136.72 141.48 136.907 142.28 137.28C143.08 137.653 143.733 138.167 144.24 138.82C144.747 139.46 145.12 140.213 145.36 141.08C145.613 141.947 145.74 142.873 145.74 143.86C145.74 144.847 145.613 145.773 145.36 146.64C145.12 147.507 144.747 148.267 144.24 148.92C143.733 149.56 143.08 150.067 142.28 150.44C141.48 150.813 140.533 151 139.44 151H133.52V136.72ZM136.02 148.96H138.48C139.453 148.96 140.247 148.833 140.86 148.58C141.487 148.313 141.973 147.953 142.32 147.5C142.68 147.033 142.92 146.493 143.04 145.88C143.173 145.253 143.24 144.58 143.24 143.86C143.24 143.14 143.173 142.473 143.04 141.86C142.92 141.233 142.68 140.693 142.32 140.24C141.973 139.773 141.487 139.413 140.86 139.16C140.247 138.893 139.453 138.76 138.48 138.76H136.02V148.96ZM151.774 136.72H154.434L159.934 151H157.254L155.914 147.22H150.214L148.874 151H146.294L151.774 136.72ZM150.894 145.32H155.254L153.114 139.18H153.054L150.894 145.32ZM163.529 145.4L158.169 136.72H161.069L164.849 143.12L168.569 136.72H171.369L166.029 145.4V151H163.529V145.4Z" fill="white"/>
<g opacity="0.3">
<rect x="56" y="186.5" width="86" height="14" rx="6" fill="#CBDFF8"/>
<rect x="56" y="206.5" width="101" height="21" rx="6" fill="#F6F7F8"/>
</g>
<g opacity="0.3">
<rect x="56" y="255.5" width="86" height="14" rx="6" fill="#CBDFF8"/>
<rect x="56" y="275.5" width="136" height="21" rx="6" fill="#F6F7F8"/>
</g>
</g>
<path fill-rule="evenodd" clip-rule="evenodd" d="M266.85 174.5C268.59 174.5 270 175.91 270 177.65L270 213.35C270 215.09 268.59 216.5 266.85 216.5L231.15 216.5C229.41 216.5 228 215.09 228 213.35L228 177.65C228 175.91 229.41 174.5 231.15 174.5L266.85 174.5Z" fill="white"/>
<path fill-rule="evenodd" clip-rule="evenodd" d="M259.523 194.844C259.894 195.206 259.894 195.793 259.523 196.155L250.023 205.428C249.652 205.79 249.05 205.79 248.679 205.428C248.308 205.066 248.308 204.479 248.679 204.117L257.507 195.5L248.679 186.883C248.308 186.521 248.308 185.934 248.679 185.571C249.05 185.209 249.652 185.209 250.023 185.571L259.523 194.844Z" fill="#0062E0" stroke="#0062E0" stroke-width="3" stroke-linecap="round" stroke-linejoin="round"/>
<path fill-rule="evenodd" clip-rule="evenodd" d="M259.201 195.501C259.201 196.164 258.786 196.701 258.274 196.701L239.728 196.701C239.216 196.701 238.801 196.164 238.801 195.501C238.801 194.838 239.216 194.301 239.728 194.301L258.274 194.301C258.786 194.301 259.201 194.838 259.201 195.501Z" fill="#0062E0" stroke="#0062E0" stroke-width="3" stroke-linecap="round" stroke-linejoin="round"/>
<g filter="url(#filter1_d_0_243)">
<path d="M330 50.5C330 47.1863 332.686 44.5 336 44.5H480C483.314 44.5 486 47.1863 486 50.5V83.5C486 86.8137 483.314 89.5 480 89.5H330V50.5Z" fill="black" shape-rendering="crispEdges"/>
<path d="M346.42 62.531L344.53 63.521V60.965L347.842 59.12H349.111V71H346.42V62.531ZM350.59 65.069C350.59 64.037 350.719 63.137 350.977 62.369C351.241 61.595 351.598 60.953 352.048 60.443C352.504 59.927 353.02 59.543 353.596 59.291C354.178 59.033 354.787 58.904 355.423 58.904C356.059 58.904 356.665 59.033 357.241 59.291C357.823 59.543 358.339 59.927 358.789 60.443C359.239 60.953 359.593 61.595 359.851 62.369C360.109 63.137 360.238 64.037 360.238 65.069C360.238 66.167 360.109 67.106 359.851 67.886C359.593 68.666 359.239 69.302 358.789 69.794C358.339 70.28 357.823 70.64 357.241 70.874C356.665 71.102 356.059 71.216 355.423 71.216C354.787 71.216 354.178 71.102 353.596 70.874C353.02 70.64 352.504 70.28 352.048 69.794C351.598 69.302 351.241 68.666 350.977 67.886C350.719 67.106 350.59 66.167 350.59 65.069ZM353.29 65.069C353.29 65.927 353.377 66.635 353.551 67.193C353.725 67.751 353.971 68.168 354.289 68.444C354.607 68.714 354.985 68.849 355.423 68.849C355.861 68.849 356.236 68.714 356.548 68.444C356.866 68.168 357.109 67.751 357.277 67.193C357.451 66.629 357.538 65.921 357.538 65.069C357.538 64.265 357.451 63.581 357.277 63.017C357.109 62.453 356.866 62.021 356.548 61.721C356.236 61.421 355.861 61.271 355.423 61.271C354.985 61.271 354.607 61.421 354.289 61.721C353.971 62.021 353.725 62.453 353.551 63.017C353.377 63.581 353.29 64.265 353.29 65.069ZM366.411 59.12H369.984C371.25 59.12 372.297 59.375 373.125 59.885C373.959 60.389 374.583 61.088 374.997 61.982C375.411 62.876 375.618 63.899 375.618 65.051C375.618 66.209 375.411 67.235 374.997 68.129C374.583 69.023 373.959 69.725 373.125 70.235C372.297 70.745 371.25 71 369.984 71H366.411V59.12ZM369.093 61.505V68.615H369.741C370.419 68.615 370.98 68.462 371.424 68.156C371.868 67.844 372.201 67.421 372.423 66.887C372.651 66.347 372.765 65.741 372.765 65.069C372.765 64.391 372.654 63.785 372.432 63.251C372.216 62.711 371.883 62.285 371.433 61.973C370.983 61.661 370.419 61.505 369.741 61.505H369.093ZM382.936 71V69.803C382.882 69.923 382.744 70.097 382.522 70.325C382.306 70.553 382.018 70.76 381.658 70.946C381.298 71.126 380.878 71.216 380.398 71.216C379.678 71.216 379.048 71.042 378.508 70.694C377.968 70.34 377.548 69.869 377.248 69.281C376.948 68.687 376.798 68.03 376.798 67.31C376.798 66.59 376.948 65.936 377.248 65.348C377.548 64.754 377.968 64.28 378.508 63.926C379.048 63.572 379.678 63.395 380.398 63.395C380.86 63.395 381.265 63.47 381.613 63.62C381.961 63.764 382.243 63.938 382.459 64.142C382.675 64.34 382.825 64.523 382.909 64.691V63.611H385.627V71H382.936ZM379.48 67.31C379.48 67.646 379.558 67.949 379.714 68.219C379.87 68.483 380.077 68.69 380.335 68.84C380.599 68.99 380.89 69.065 381.208 69.065C381.538 69.065 381.829 68.99 382.081 68.84C382.333 68.69 382.531 68.483 382.675 68.219C382.825 67.949 382.9 67.646 382.9 67.31C382.9 66.974 382.825 66.674 382.675 66.41C382.531 66.14 382.333 65.93 382.081 65.78C381.829 65.624 381.538 65.546 381.208 65.546C380.89 65.546 380.599 65.624 380.335 65.78C380.077 65.93 379.87 66.14 379.714 66.41C379.558 66.674 379.48 66.974 379.48 67.31ZM391.089 68.633L393.087 63.611H395.769L390.693 74.744H387.957L389.667 71L386.58 63.611H389.307L391.089 68.633ZM399.939 63.395C400.425 63.395 400.869 63.437 401.271 63.521C401.673 63.599 402.009 63.689 402.279 63.791C402.555 63.893 402.732 63.977 402.81 64.043L401.919 65.654C401.805 65.57 401.592 65.462 401.28 65.33C400.974 65.198 400.632 65.132 400.254 65.132C399.966 65.132 399.723 65.177 399.525 65.267C399.327 65.351 399.228 65.486 399.228 65.672C399.228 65.858 399.336 66.008 399.552 66.122C399.774 66.23 400.092 66.326 400.506 66.41C400.866 66.482 401.232 66.596 401.604 66.752C401.976 66.908 402.285 67.139 402.531 67.445C402.783 67.745 402.909 68.147 402.909 68.651C402.909 69.167 402.798 69.593 402.576 69.929C402.354 70.265 402.06 70.526 401.694 70.712C401.328 70.898 400.932 71.027 400.506 71.099C400.08 71.177 399.666 71.216 399.264 71.216C398.7 71.216 398.208 71.165 397.788 71.063C397.374 70.961 397.038 70.844 396.78 70.712C396.522 70.58 396.342 70.475 396.24 70.397L397.122 68.597C397.278 68.729 397.533 68.879 397.887 69.047C398.241 69.209 398.616 69.29 399.012 69.29C399.396 69.29 399.693 69.233 399.903 69.119C400.113 69.005 400.218 68.855 400.218 68.669C400.218 68.519 400.167 68.399 400.065 68.309C399.963 68.219 399.819 68.141 399.633 68.075C399.447 68.009 399.222 67.949 398.958 67.895C398.718 67.847 398.463 67.772 398.193 67.67C397.923 67.568 397.668 67.43 397.428 67.256C397.188 67.076 396.993 66.851 396.843 66.581C396.693 66.311 396.618 65.984 396.618 65.6C396.618 65.108 396.777 64.7 397.095 64.376C397.413 64.052 397.824 63.809 398.328 63.647C398.832 63.479 399.369 63.395 399.939 63.395ZM412.437 63.395C412.923 63.395 413.367 63.437 413.769 63.521C414.171 63.599 414.507 63.689 414.777 63.791C415.053 63.893 415.23 63.977 415.308 64.043L414.417 65.654C414.303 65.57 414.09 65.462 413.778 65.33C413.472 65.198 413.13 65.132 412.752 65.132C412.464 65.132 412.221 65.177 412.023 65.267C411.825 65.351 411.726 65.486 411.726 65.672C411.726 65.858 411.834 66.008 412.05 66.122C412.272 66.23 412.59 66.326 413.004 66.41C413.364 66.482 413.73 66.596 414.102 66.752C414.474 66.908 414.783 67.139 415.029 67.445C415.281 67.745 415.407 68.147 415.407 68.651C415.407 69.167 415.296 69.593 415.074 69.929C414.852 70.265 414.558 70.526 414.192 70.712C413.826 70.898 413.43 71.027 413.004 71.099C412.578 71.177 412.164 71.216 411.762 71.216C411.198 71.216 410.706 71.165 410.286 71.063C409.872 70.961 409.536 70.844 409.278 70.712C409.02 70.58 408.84 70.475 408.738 70.397L409.62 68.597C409.776 68.729 410.031 68.879 410.385 69.047C410.739 69.209 411.114 69.29 411.51 69.29C411.894 69.29 412.191 69.233 412.401 69.119C412.611 69.005 412.716 68.855 412.716 68.669C412.716 68.519 412.665 68.399 412.563 68.309C412.461 68.219 412.317 68.141 412.131 68.075C411.945 68.009 411.72 67.949 411.456 67.895C411.216 67.847 410.961 67.772 410.691 67.67C410.421 67.568 410.166 67.43 409.926 67.256C409.686 67.076 409.491 66.851 409.341 66.581C409.191 66.311 409.116 65.984 409.116 65.6C409.116 65.108 409.275 64.7 409.593 64.376C409.911 64.052 410.322 63.809 410.826 63.647C411.33 63.479 411.867 63.395 412.437 63.395ZM419.038 67.886C419.056 68.15 419.14 68.384 419.29 68.588C419.44 68.792 419.647 68.954 419.911 69.074C420.181 69.188 420.499 69.245 420.865 69.245C421.213 69.245 421.525 69.209 421.801 69.137C422.083 69.065 422.326 68.975 422.53 68.867C422.74 68.759 422.902 68.648 423.016 68.534L424.078 70.226C423.928 70.388 423.715 70.547 423.439 70.703C423.169 70.853 422.812 70.976 422.368 71.072C421.924 71.168 421.363 71.216 420.685 71.216C419.869 71.216 419.143 71.063 418.507 70.757C417.871 70.451 417.37 70.001 417.004 69.407C416.638 68.813 416.455 68.087 416.455 67.229C416.455 66.509 416.611 65.861 416.923 65.285C417.241 64.703 417.7 64.244 418.3 63.908C418.9 63.566 419.623 63.395 420.469 63.395C421.273 63.395 421.969 63.542 422.557 63.836C423.151 64.13 423.607 64.568 423.925 65.15C424.249 65.726 424.411 66.446 424.411 67.31C424.411 67.358 424.408 67.454 424.402 67.598C424.402 67.742 424.396 67.838 424.384 67.886H419.038ZM421.837 66.455C421.831 66.263 421.78 66.074 421.684 65.888C421.588 65.696 421.444 65.54 421.252 65.42C421.06 65.294 420.814 65.231 420.514 65.231C420.214 65.231 419.959 65.291 419.749 65.411C419.545 65.525 419.389 65.675 419.281 65.861C419.173 66.047 419.113 66.245 419.101 66.455H421.837ZM428.56 71H425.815V58.616H428.56V71ZM432.502 67.886C432.52 68.15 432.604 68.384 432.754 68.588C432.904 68.792 433.111 68.954 433.375 69.074C433.645 69.188 433.963 69.245 434.329 69.245C434.677 69.245 434.989 69.209 435.265 69.137C435.547 69.065 435.79 68.975 435.994 68.867C436.204 68.759 436.366 68.648 436.48 68.534L437.542 70.226C437.392 70.388 437.179 70.547 436.903 70.703C436.633 70.853 436.276 70.976 435.832 71.072C435.388 71.168 434.827 71.216 434.149 71.216C433.333 71.216 432.607 71.063 431.971 70.757C431.335 70.451 430.834 70.001 430.468 69.407C430.102 68.813 429.919 68.087 429.919 67.229C429.919 66.509 430.075 65.861 430.387 65.285C430.705 64.703 431.164 64.244 431.764 63.908C432.364 63.566 433.087 63.395 433.933 63.395C434.737 63.395 435.433 63.542 436.021 63.836C436.615 64.13 437.071 64.568 437.389 65.15C437.713 65.726 437.875 66.446 437.875 67.31C437.875 67.358 437.872 67.454 437.866 67.598C437.866 67.742 437.86 67.838 437.848 67.886H432.502ZM435.301 66.455C435.295 66.263 435.244 66.074 435.148 65.888C435.052 65.696 434.908 65.54 434.716 65.42C434.524 65.294 434.278 65.231 433.978 65.231C433.678 65.231 433.423 65.291 433.213 65.411C433.009 65.525 432.853 65.675 432.745 65.861C432.637 66.047 432.577 66.245 432.565 66.455H435.301ZM443.294 69.065C443.636 69.065 443.918 69.008 444.14 68.894C444.362 68.774 444.512 68.678 444.59 68.606L445.841 70.46C445.745 70.538 445.58 70.64 445.346 70.766C445.112 70.886 444.818 70.991 444.464 71.081C444.116 71.171 443.717 71.216 443.267 71.216C442.421 71.216 441.677 71.057 441.035 70.739C440.393 70.415 439.892 69.959 439.532 69.371C439.178 68.783 439.001 68.093 439.001 67.301C439.001 66.503 439.178 65.813 439.532 65.231C439.892 64.649 440.393 64.199 441.035 63.881C441.677 63.557 442.421 63.395 443.267 63.395C443.711 63.395 444.107 63.443 444.455 63.539C444.809 63.629 445.106 63.734 445.346 63.854C445.586 63.968 445.754 64.067 445.85 64.151L444.572 66.023C444.53 65.981 444.452 65.921 444.338 65.843C444.23 65.765 444.089 65.696 443.915 65.636C443.741 65.576 443.534 65.546 443.294 65.546C443 65.546 442.724 65.621 442.466 65.771C442.214 65.921 442.01 66.128 441.854 66.392C441.698 66.656 441.62 66.959 441.62 67.301C441.62 67.643 441.698 67.949 441.854 68.219C442.01 68.483 442.214 68.69 442.466 68.84C442.724 68.99 443 69.065 443.294 69.065ZM446.253 63.611H447.513V60.578H450.222V63.611H451.878V65.861H450.222V67.922C450.222 68.228 450.267 68.477 450.357 68.669C450.447 68.855 450.612 68.948 450.852 68.948C451.014 68.948 451.152 68.912 451.266 68.84C451.38 68.768 451.449 68.72 451.473 68.696L452.409 70.64C452.367 70.676 452.235 70.742 452.013 70.838C451.797 70.934 451.521 71.021 451.185 71.099C450.849 71.177 450.474 71.216 450.06 71.216C449.322 71.216 448.713 71.009 448.233 70.595C447.753 70.175 447.513 69.53 447.513 68.66V65.861H446.253V63.611ZM455.6 67.886C455.618 68.15 455.702 68.384 455.852 68.588C456.002 68.792 456.209 68.954 456.473 69.074C456.743 69.188 457.061 69.245 457.427 69.245C457.775 69.245 458.087 69.209 458.363 69.137C458.645 69.065 458.888 68.975 459.092 68.867C459.302 68.759 459.464 68.648 459.578 68.534L460.64 70.226C460.49 70.388 460.277 70.547 460.001 70.703C459.731 70.853 459.374 70.976 458.93 71.072C458.486 71.168 457.925 71.216 457.247 71.216C456.431 71.216 455.705 71.063 455.069 70.757C454.433 70.451 453.932 70.001 453.566 69.407C453.2 68.813 453.017 68.087 453.017 67.229C453.017 66.509 453.173 65.861 453.485 65.285C453.803 64.703 454.262 64.244 454.862 63.908C455.462 63.566 456.185 63.395 457.031 63.395C457.835 63.395 458.531 63.542 459.119 63.836C459.713 64.13 460.169 64.568 460.487 65.15C460.811 65.726 460.973 66.446 460.973 67.31C460.973 67.358 460.97 67.454 460.964 67.598C460.964 67.742 460.958 67.838 460.946 67.886H455.6ZM458.399 66.455C458.393 66.263 458.342 66.074 458.246 65.888C458.15 65.696 458.006 65.54 457.814 65.42C457.622 65.294 457.376 65.231 457.076 65.231C456.776 65.231 456.521 65.291 456.311 65.411C456.107 65.525 455.951 65.675 455.843 65.861C455.735 66.047 455.675 66.245 455.663 66.455H458.399ZM465.555 71.216C464.841 71.216 464.22 71.042 463.692 70.694C463.164 70.34 462.753 69.869 462.459 69.281C462.171 68.687 462.027 68.03 462.027 67.31C462.027 66.59 462.171 65.936 462.459 65.348C462.753 64.754 463.164 64.28 463.692 63.926C464.22 63.572 464.841 63.395 465.555 63.395C466.029 63.395 466.449 63.47 466.815 63.62C467.181 63.764 467.478 63.938 467.706 64.142C467.934 64.34 468.072 64.523 468.12 64.691V58.616H470.856V71H468.147V69.803C468.033 70.025 467.847 70.247 467.589 70.469C467.331 70.685 467.028 70.862 466.68 71C466.332 71.144 465.957 71.216 465.555 71.216ZM466.392 69.065C466.722 69.065 467.016 68.99 467.274 68.84C467.538 68.69 467.745 68.483 467.895 68.219C468.045 67.949 468.12 67.646 468.12 67.31C468.12 66.974 468.045 66.674 467.895 66.41C467.745 66.14 467.538 65.93 467.274 65.78C467.016 65.624 466.722 65.546 466.392 65.546C466.074 65.546 465.786 65.624 465.528 65.78C465.276 65.93 465.075 66.14 464.925 66.41C464.781 66.674 464.709 66.974 464.709 67.31C464.709 67.646 464.781 67.949 464.925 68.219C465.075 68.483 465.276 68.69 465.528 68.84C465.786 68.99 466.074 69.065 466.392 69.065Z" fill="white"/>
</g>
<defs>
<filter id="filter0_d_0_243" x="20" y="72.5" width="206" height="264" filterUnits="userSpaceOnUse" color-interpolation-filters="sRGB">
<feFlood flood-opacity="0" result="BackgroundImageFix"/>
<feColorMatrix in="SourceAlpha" type="matrix" values="0 0 0 0 0 0 0 0 0 0 0 0 0 0 0 0 0 0 127 0" result="hardAlpha"/>
<feOffset dy="4"/>
<feGaussianBlur stdDeviation="5"/>
<feComposite in2="hardAlpha" operator="out"/>
<feColorMatrix type="matrix" values="0 0 0 0 0 0 0 0 0 0 0 0 0 0 0 0 0 0 0.12 0"/>
<feBlend mode="normal" in2="BackgroundImageFix" result="effect1_dropShadow_0_243"/>
<feBlend mode="normal" in="SourceGraphic" in2="effect1_dropShadow_0_243" result="shape"/>
</filter>
<filter id="filter1_d_0_243" x="320" y="38.5" width="176" height="65" filterUnits="userSpaceOnUse" color-interpolation-filters="sRGB">
<feFlood flood-opacity="0" result="BackgroundImageFix"/>
<feColorMatrix in="SourceAlpha" type="matrix" values="0 0 0 0 0 0 0 0 0 0 0 0 0 0 0 0 0 0 127 0" result="hardAlpha"/>
<feOffset dy="4"/>
<feGaussianBlur stdDeviation="5"/>
<feComposite in2="hardAlpha" operator="out"/>
<feColorMatrix type="matrix" values="0 0 0 0 0 0 0 0 0 0 0 0 0 0 0 0 0 0 0.12 0"/>
<feBlend mode="normal" in2="BackgroundImageFix" result="effect1_dropShadow_0_243"/>
<feBlend mode="normal" in="SourceGraphic" in2="effect1_dropShadow_0_243" result="shape"/>
</filter>
<linearGradient id="paint0_linear_0_243" x1="30" y1="101.686" x2="235.518" y2="114.595" gradientUnits="userSpaceOnUse">
<stop stop-color="#0062E0"/>
<stop offset="1" stop-color="#0094FF"/>
</linearGradient>
</defs>
</svg>
