<svg width="528" height="483" viewBox="0 0 528 483" fill="none" xmlns="http://www.w3.org/2000/svg">
  <style>
    #circle {
    transform-origin: center 200px;
    animation: grow 5s infinite;
    }
    @keyframes grow {
    0% {
    transform: scale(0);
    }
    20% {
    transform: scale(1.2);
    }
    100% {
    transform: scale(1);
    }
    }
</style>
  <g filter="url(#filter0_d_0_187)">
    <rect x="16" y="11.5" width="496" height="450" rx="34" fill="white" />
    <rect x="16.5" y="12" width="495" height="449" rx="33.5" stroke="#EFF0F7" />
  </g>
  <rect x="109.095" y="66.2354" width="67.1193" height="4.45545" rx="2.22772" fill="#F8F9FD" />
  <rect x="229.578" y="66.2354" width="67.1193" height="4.45545" rx="2.22772" fill="#F8F9FD" />
  <rect x="350.054" y="66.2354" width="67.1193" height="4.45545" rx="2.22772" fill="#F8F9FD" />
  <ellipse cx="84.012" cy="68.2534" rx="20.012" ry="20" fill="url(#paint0_linear_0_187)" />
  <path
    d="M83.3744 63.8313L80.9214 65.1953V62.9623L84.4744 60.9273H85.6954V75.4473H83.3744V63.8313Z"
    fill="white" />
  <ellipse cx="205.243" cy="68.2534" rx="20.012" ry="20" fill="url(#paint1_linear_0_187)" />
  <path
    d="M205.148 62.6763C204.583 62.6763 204.085 62.7973 203.652 63.0393C203.227 63.2739 202.871 63.5526 202.585 63.8753C202.299 64.1979 202.079 64.4913 201.925 64.7553C201.778 65.0193 201.698 65.1659 201.683 65.1953L199.67 64.2933C199.685 64.2273 199.754 64.0623 199.879 63.7983C200.004 63.5269 200.198 63.2189 200.462 62.8743C200.726 62.5223 201.067 62.1776 201.485 61.8403C201.91 61.5029 202.424 61.2243 203.025 61.0043C203.634 60.7769 204.341 60.6633 205.148 60.6633C206.021 60.6633 206.761 60.7843 207.37 61.0263C207.979 61.2683 208.474 61.6019 208.855 62.0273C209.236 62.4453 209.515 62.9256 209.691 63.4683C209.867 64.0109 209.955 64.5829 209.955 65.1843C209.955 65.8003 209.812 66.4236 209.526 67.0543C209.247 67.6849 208.884 68.2973 208.437 68.8913C207.99 69.4779 207.509 70.0279 206.996 70.5413C206.483 71.0546 205.984 71.5129 205.5 71.9163C205.023 72.3196 204.613 72.6496 204.268 72.9063C203.931 73.1629 203.718 73.3243 203.63 73.3903H209.834V75.4473H200.066V73.5773C200.257 73.4233 200.568 73.1776 201.001 72.8403C201.441 72.5029 201.947 72.1033 202.519 71.6413C203.091 71.1719 203.67 70.6623 204.257 70.1123C204.851 69.5623 205.401 68.9976 205.907 68.4183C206.42 67.8389 206.831 67.2706 207.139 66.7133C207.454 66.1559 207.612 65.6353 207.612 65.1513C207.612 64.2419 207.399 63.6039 206.974 63.2373C206.549 62.8633 205.94 62.6763 205.148 62.6763Z"
    fill="white" />
  <ellipse cx="323.179" cy="68.2534" rx="20.012" ry="20" fill="url(#paint2_linear_0_187)" />
  <path
    d="M318.357 63.4243C318.408 63.2116 318.536 62.9513 318.742 62.6433C318.954 62.3353 319.244 62.0309 319.611 61.7303C319.977 61.4296 320.436 61.1766 320.986 60.9713C321.543 60.7659 322.192 60.6633 322.933 60.6633C323.857 60.6633 324.656 60.8356 325.331 61.1803C326.013 61.5176 326.537 61.9833 326.904 62.5773C327.27 63.1713 327.454 63.8496 327.454 64.6123C327.454 65.1476 327.347 65.6353 327.135 66.0753C326.929 66.5153 326.662 66.8783 326.332 67.1643C326.009 67.4429 325.664 67.6189 325.298 67.6923C325.694 67.7363 326.093 67.9013 326.497 68.1873C326.907 68.4659 327.248 68.8546 327.52 69.3533C327.798 69.8446 327.938 70.4276 327.938 71.1023C327.938 71.9823 327.721 72.7706 327.289 73.4673C326.863 74.1639 326.269 74.7139 325.507 75.1173C324.751 75.5133 323.879 75.7113 322.889 75.7113C321.899 75.7113 321.055 75.5426 320.359 75.2053C319.662 74.8606 319.105 74.4389 318.687 73.9403C318.276 73.4416 317.997 72.9613 317.851 72.4993L319.974 71.4323C320.076 71.7476 320.249 72.0813 320.491 72.4333C320.74 72.7779 321.063 73.0713 321.459 73.3133C321.862 73.5553 322.331 73.6763 322.867 73.6763C323.453 73.6763 323.952 73.5589 324.363 73.3243C324.773 73.0896 325.085 72.7743 325.298 72.3783C325.51 71.9823 325.617 71.5386 325.617 71.0473C325.617 70.5046 325.488 70.0609 325.232 69.7163C324.975 69.3716 324.638 69.1149 324.22 68.9463C323.809 68.7776 323.358 68.6933 322.867 68.6933H322.581V66.9773H322.955C323.38 66.9773 323.772 66.8893 324.132 66.7133C324.498 66.5373 324.792 66.2843 325.012 65.9543C325.232 65.6243 325.342 65.2283 325.342 64.7663C325.342 64.1576 325.136 63.6406 324.726 63.2153C324.322 62.7899 323.714 62.5773 322.9 62.5773C322.445 62.5773 322.053 62.6506 321.723 62.7973C321.4 62.9366 321.136 63.1089 320.931 63.3143C320.725 63.5123 320.571 63.7066 320.469 63.8973C320.366 64.0879 320.304 64.2309 320.282 64.3263L318.357 63.4243Z"
    fill="white" />
  <ellipse cx="443.99" cy="68.2534" rx="20.012" ry="20" fill="url(#paint3_linear_0_187)" />
  <path
    d="M447.117 60.9273V70.3323H448.778V72.3893H447.117V75.4473H444.796V72.3893H438.724V70.5083L444.532 60.9273H447.117ZM444.796 70.3323V64.1943H444.785L441.122 70.3323H444.796Z"
    fill="white" />
  <line x1="64" y1="123.251" x2="464" y2="123.252" stroke="#D9DBE9" />
  <g id="circle">
    <circle cx="264" cy="207.162" r="60" fill="#25B700" />
    <g filter="url(#filter1_d_0_187)">
      <path d="M241.856 210.404L254.854 223.384L287.351 190.933" fill="#25B700" />
      <path d="M241.856 210.404L254.854 223.384L287.351 190.933" stroke="white" stroke-width="8"
        stroke-linecap="round" stroke-linejoin="round" />
    </g>
  </g>
  <rect x="90" y="302.5" width="348" height="46" rx="6" fill="#F6F7F8" />
  <rect x="90" y="362.5" width="348" height="46" rx="6" fill="#F6F7F8" />
  <defs>
    <filter id="filter0_d_0_187" x="0" y="0.5" width="528" height="482" filterUnits="userSpaceOnUse"
      color-interpolation-filters="sRGB">
      <feFlood flood-opacity="0" result="BackgroundImageFix" />
      <feColorMatrix in="SourceAlpha" type="matrix"
        values="0 0 0 0 0 0 0 0 0 0 0 0 0 0 0 0 0 0 127 0" result="hardAlpha" />
      <feOffset dy="5" />
      <feGaussianBlur stdDeviation="8" />
      <feColorMatrix type="matrix"
        values="0 0 0 0 0.0323264 0 0 0 0 0.0598209 0 0 0 0 0.204167 0 0 0 0.06 0" />
      <feBlend mode="normal" in2="BackgroundImageFix" result="effect1_dropShadow_0_187" />
      <feBlend mode="normal" in="SourceGraphic" in2="effect1_dropShadow_0_187" result="shape" />
    </filter>
    <filter id="filter1_d_0_187" x="207.856" y="160.933" width="113.495" height="100.451"
      filterUnits="userSpaceOnUse" color-interpolation-filters="sRGB">
      <feFlood flood-opacity="0" result="BackgroundImageFix" />
      <feColorMatrix in="SourceAlpha" type="matrix"
        values="0 0 0 0 0 0 0 0 0 0 0 0 0 0 0 0 0 0 127 0" result="hardAlpha" />
      <feOffset dy="4" />
      <feGaussianBlur stdDeviation="15" />
      <feColorMatrix type="matrix" values="0 0 0 0 0.290196 0 0 0 0 0.227451 0 0 0 0 1 0 0 0 0.3 0" />
      <feBlend mode="normal" in2="BackgroundImageFix" result="effect1_dropShadow_0_187" />
      <feBlend mode="normal" in="SourceGraphic" in2="effect1_dropShadow_0_187" result="shape" />
    </filter>
    <linearGradient id="paint0_linear_0_187" x1="64" y1="52.0543" x2="108.099" y2="55.6903"
      gradientUnits="userSpaceOnUse">
      <stop stop-color="#0062E0" />
      <stop offset="1" stop-color="#0094FF" />
    </linearGradient>
    <linearGradient id="paint1_linear_0_187" x1="185.231" y1="52.0543" x2="229.33" y2="55.6903"
      gradientUnits="userSpaceOnUse">
      <stop stop-color="#0062E0" />
      <stop offset="1" stop-color="#0094FF" />
    </linearGradient>
    <linearGradient id="paint2_linear_0_187" x1="303.167" y1="52.0543" x2="347.265" y2="55.6903"
      gradientUnits="userSpaceOnUse">
      <stop stop-color="#0062E0" />
      <stop offset="1" stop-color="#0094FF" />
    </linearGradient>
    <linearGradient id="paint3_linear_0_187" x1="423.978" y1="52.0543" x2="468.076" y2="55.6903"
      gradientUnits="userSpaceOnUse">
      <stop stop-color="#0062E0" />
      <stop offset="1" stop-color="#0094FF" />
    </linearGradient>
  </defs>
</svg>